<svg width="30" height="30" viewBox="0 0 30 30" fill="none" xmlns="http://www.w3.org/2000/svg">
<path fill-rule="evenodd" clip-rule="evenodd" d="M20.4063 18.6238L27.1313 25.3488C27.3676 25.5853 27.5004 25.9061 27.5002 26.2405C27.5001 26.5749 27.3672 26.8955 27.1306 27.1319C26.8941 27.3683 26.5733 27.501 26.2389 27.5009C25.9045 27.5008 25.5839 27.3678 25.3475 27.1313L18.6225 20.4063C16.6122 21.9634 14.0841 22.6961 11.5527 22.4555C9.02123 22.2148 6.67655 21.0188 4.99562 19.1108C3.31468 17.2028 2.42375 14.7261 2.50408 12.1845C2.58441 9.6429 3.62995 7.22737 5.42802 5.4293C7.22609 3.63124 9.64161 2.58569 12.1832 2.50536C14.7248 2.42503 17.2015 3.31596 19.1095 4.9969C21.0176 6.67784 22.2135 9.02252 22.4542 11.554C22.6949 14.0854 21.9621 16.6134 20.405 18.6238H20.4063ZM12.5 20C14.4891 20 16.3968 19.2099 17.8033 17.8033C19.2098 16.3968 20 14.4892 20 12.5C20 10.5109 19.2098 8.60327 17.8033 7.19675C16.3968 5.79022 14.4891 5.00005 12.5 5.00005C10.5109 5.00005 8.60324 5.79022 7.19671 7.19675C5.79019 8.60327 5.00001 10.5109 5.00001 12.5C5.00001 14.4892 5.79019 16.3968 7.19671 17.8033C8.60324 19.2099 10.5109 20 12.5 20V20Z" fill="black"/>
</svg>
