<svg width="30" height="30" viewBox="0 0 30 30" fill="none" xmlns="http://www.w3.org/2000/svg">
<path d="M25.7812 3.28125H4.21875C3.7002 3.28125 3.28125 3.7002 3.28125 4.21875V25.7812C3.28125 26.2998 3.7002 26.7188 4.21875 26.7188H25.7812C26.2998 26.7188 26.7188 26.2998 26.7188 25.7812V4.21875C26.7188 3.7002 26.2998 3.28125 25.7812 3.28125ZM24.6094 24.6094H5.39062V5.39062H24.6094V24.6094ZM14.4141 11.7188H19.8047C19.9336 11.7188 20.0391 11.6133 20.0391 11.4844V10.0781C20.0391 9.94922 19.9336 9.84375 19.8047 9.84375H14.4141C14.2852 9.84375 14.1797 9.94922 14.1797 10.0781V11.4844C14.1797 11.6133 14.2852 11.7188 14.4141 11.7188ZM14.4141 15.9375H19.8047C19.9336 15.9375 20.0391 15.832 20.0391 15.7031V14.2969C20.0391 14.168 19.9336 14.0625 19.8047 14.0625H14.4141C14.2852 14.0625 14.1797 14.168 14.1797 14.2969V15.7031C14.1797 15.832 14.2852 15.9375 14.4141 15.9375ZM14.4141 20.1562H19.8047C19.9336 20.1562 20.0391 20.0508 20.0391 19.9219V18.5156C20.0391 18.3867 19.9336 18.2812 19.8047 18.2812H14.4141C14.2852 18.2812 14.1797 18.3867 14.1797 18.5156V19.9219C14.1797 20.0508 14.2852 20.1562 14.4141 20.1562ZM9.96094 10.7812C9.96094 11.0921 10.0844 11.3901 10.3042 11.6099C10.5239 11.8297 10.822 11.9531 11.1328 11.9531C11.4436 11.9531 11.7417 11.8297 11.9615 11.6099C12.1812 11.3901 12.3047 11.0921 12.3047 10.7812C12.3047 10.4704 12.1812 10.1724 11.9615 9.95261C11.7417 9.73284 11.4436 9.60938 11.1328 9.60938C10.822 9.60938 10.5239 9.73284 10.3042 9.95261C10.0844 10.1724 9.96094 10.4704 9.96094 10.7812V10.7812ZM9.96094 15C9.96094 15.3108 10.0844 15.6089 10.3042 15.8286C10.5239 16.0484 10.822 16.1719 11.1328 16.1719C11.4436 16.1719 11.7417 16.0484 11.9615 15.8286C12.1812 15.6089 12.3047 15.3108 12.3047 15C12.3047 14.6892 12.1812 14.3911 11.9615 14.1714C11.7417 13.9516 11.4436 13.8281 11.1328 13.8281C10.822 13.8281 10.5239 13.9516 10.3042 14.1714C10.0844 14.3911 9.96094 14.6892 9.96094 15ZM9.96094 19.2188C9.96094 19.5296 10.0844 19.8276 10.3042 20.0474C10.5239 20.2672 10.822 20.3906 11.1328 20.3906C11.4436 20.3906 11.7417 20.2672 11.9615 20.0474C12.1812 19.8276 12.3047 19.5296 12.3047 19.2188C12.3047 18.9079 12.1812 18.6099 11.9615 18.3901C11.7417 18.1703 11.4436 18.0469 11.1328 18.0469C10.822 18.0469 10.5239 18.1703 10.3042 18.3901C10.0844 18.6099 9.96094 18.9079 9.96094 19.2188V19.2188Z" fill="black"/>
</svg>
