<svg width="30" height="30" viewBox="0 0 30 30" fill="none" xmlns="http://www.w3.org/2000/svg">
<path d="M10.7625 27.5C10.1525 27.4964 9.56025 27.2946 9.07498 26.925L6.48748 25C5.89037 24.5344 5.49418 23.8579 5.38027 23.1094C5.26636 22.3608 5.44338 21.5971 5.87498 20.975C6.10334 20.6378 6.24847 20.2513 6.29845 19.8471C6.34843 19.4429 6.30183 19.0327 6.16248 18.65L6.08748 18.45C5.99046 18.1036 5.81312 17.785 5.56987 17.5201C5.32662 17.2551 5.02431 17.0512 4.68748 16.925H4.48748C3.75732 16.6795 3.15349 16.1558 2.80712 15.4678C2.46074 14.7797 2.39979 13.9827 2.63748 13.25L3.66248 10C3.75684 9.62345 3.93055 9.27141 4.172 8.96745C4.41345 8.66348 4.71705 8.41461 5.06248 8.2375C5.38417 8.07175 5.73615 7.973 6.0971 7.94721C6.45806 7.92143 6.8205 7.96916 7.16248 8.0875C7.53484 8.21282 7.93216 8.2453 8.31993 8.18212C8.70769 8.11895 9.07416 7.96203 9.38748 7.725L9.54998 7.6C9.8336 7.37369 10.0628 7.08663 10.2207 6.75996C10.3787 6.43329 10.4613 6.07534 10.4625 5.7125V5.4125C10.4591 4.64766 10.758 3.91247 11.2942 3.36698C11.8303 2.82149 12.5602 2.50988 13.325 2.5H16.5125C16.8846 2.501 17.2528 2.57551 17.596 2.71923C17.9393 2.86295 18.2507 3.07307 18.5125 3.3375C19.0629 3.89724 19.3686 4.65253 19.3625 5.4375V5.7875C19.3561 6.13219 19.4309 6.47355 19.5807 6.78404C19.7305 7.09453 19.9512 7.36547 20.225 7.575L20.3625 7.675C20.643 7.88538 20.9703 8.0248 21.3164 8.08139C21.6624 8.13798 22.017 8.11006 22.35 8L22.775 7.8625C23.1351 7.74314 23.5155 7.69752 23.8936 7.72837C24.2717 7.75922 24.6397 7.8659 24.9757 8.04205C25.3116 8.2182 25.6087 8.46021 25.8491 8.75365C26.0895 9.04709 26.2684 9.38594 26.375 9.75L27.3625 12.9C27.591 13.628 27.5285 14.4162 27.1882 15.0991C26.8479 15.782 26.2563 16.3065 25.5375 16.5625L25.2875 16.65C24.9198 16.7704 24.5873 16.9793 24.3192 17.2583C24.0511 17.5372 23.8556 17.8778 23.75 18.25C23.6505 18.596 23.6269 18.9594 23.6808 19.3154C23.7348 19.6714 23.865 20.0115 24.0625 20.3125L24.3875 20.7875C24.8185 21.4131 24.9939 22.1798 24.8776 22.9305C24.7614 23.6812 24.3624 24.359 23.7625 24.825L21.25 26.7625C20.9464 26.9946 20.5986 27.1622 20.2279 27.2548C19.8571 27.3475 19.4714 27.3632 19.0943 27.3012C18.7172 27.2391 18.3569 27.1005 18.0354 26.894C17.7139 26.6874 17.4381 26.4172 17.225 26.1L17.075 25.8875C16.8703 25.5798 16.5909 25.329 16.263 25.1586C15.9352 24.9881 15.5694 24.9034 15.2 24.9125C14.8475 24.9216 14.502 25.0135 14.1915 25.1807C13.881 25.3479 13.6142 25.5857 13.4125 25.875L13.125 26.2875C12.9118 26.6069 12.6354 26.8793 12.313 27.0878C11.9905 27.2963 11.6287 27.4366 11.25 27.5C11.0879 27.5159 10.9246 27.5159 10.7625 27.5ZM5.49998 14.525C6.20585 14.7767 6.84276 15.1906 7.35948 15.7334C7.8762 16.2761 8.25828 16.9326 8.47498 17.65V17.8C8.7449 18.5458 8.83353 19.3451 8.73355 20.1319C8.63357 20.9187 8.34785 21.6704 7.89998 22.325C7.82093 22.4123 7.77715 22.5259 7.77715 22.6437C7.77715 22.7616 7.82093 22.8752 7.89998 22.9625L10.5875 25C10.6225 25.0275 10.6631 25.0473 10.7064 25.0578C10.7497 25.0684 10.7948 25.0696 10.8386 25.0613C10.8824 25.053 10.9239 25.0354 10.9604 25.0098C10.9969 24.9841 11.0274 24.9509 11.05 24.9125L11.3375 24.5C11.7711 23.8735 12.3502 23.3614 13.0251 23.0077C13.6999 22.6541 14.4505 22.4693 15.2125 22.4693C15.9744 22.4693 16.725 22.6541 17.3999 23.0077C18.0748 23.3614 18.6539 23.8735 19.0875 24.5L19.2375 24.725C19.2912 24.8012 19.3714 24.8547 19.4625 24.875C19.5042 24.8812 19.5468 24.8788 19.5876 24.8681C19.6284 24.8573 19.6667 24.8384 19.7 24.8125L22.275 22.8625C22.3651 22.791 22.4244 22.6876 22.4407 22.5737C22.457 22.4598 22.429 22.3439 22.3625 22.25L22.0375 21.775C21.614 21.1575 21.3346 20.4528 21.22 19.7129C21.1053 18.9729 21.1583 18.2167 21.375 17.5C21.5947 16.7467 21.992 16.0572 22.5337 15.4895C23.0753 14.9217 23.7454 14.4924 24.4875 14.2375L24.7375 14.15C24.8417 14.1083 24.9251 14.027 24.9696 13.924C25.0141 13.8209 25.016 13.7045 24.975 13.6L24 10.4875C23.9766 10.433 23.9423 10.3839 23.8994 10.3431C23.8564 10.3023 23.8056 10.2706 23.75 10.25C23.7132 10.2313 23.6725 10.2216 23.6312 10.2216C23.59 10.2216 23.5493 10.2313 23.5125 10.25L23.0875 10.3875C22.3685 10.6248 21.6027 10.6839 20.8559 10.5598C20.1091 10.4357 19.4035 10.1321 18.8 9.675L18.75 9.5625C18.1708 9.1239 17.7012 8.55702 17.3781 7.90636C17.0549 7.2557 16.887 6.53899 16.8875 5.8125V5.425C16.8897 5.30452 16.8449 5.18791 16.7625 5.1C16.6906 5.03501 16.5969 4.99933 16.5 5H13.325C13.2741 5.00318 13.2243 5.01638 13.1785 5.03886C13.1326 5.06133 13.0917 5.09263 13.058 5.13095C13.0244 5.16928 12.9986 5.21388 12.9822 5.2622C12.9658 5.31051 12.9591 5.36159 12.9625 5.4125V5.725C12.9626 6.4713 12.7913 7.20765 12.4619 7.87731C12.1325 8.54698 11.6537 9.13207 11.0625 9.5875L10.9 9.7125C10.2621 10.1981 9.51464 10.5194 8.72335 10.648C7.93207 10.7766 7.12129 10.7086 6.36248 10.45C6.30571 10.4309 6.24426 10.4309 6.18748 10.45C6.11694 10.4929 6.06381 10.5593 6.03748 10.6375L4.99998 13.9C4.96382 14.0111 4.97229 14.1319 5.02361 14.2369C5.07494 14.3419 5.16508 14.4228 5.27498 14.4625L5.49998 14.525Z" fill="black"/>
<path d="M15 19.375C14.1347 19.375 13.2888 19.1184 12.5694 18.6377C11.8499 18.157 11.2892 17.4737 10.958 16.6742C10.6269 15.8748 10.5403 14.9951 10.7091 14.1465C10.8779 13.2978 11.2946 12.5183 11.9064 11.9064C12.5183 11.2946 13.2978 10.8779 14.1465 10.7091C14.9951 10.5403 15.8748 10.6269 16.6742 10.958C17.4737 11.2892 18.157 11.8499 18.6377 12.5694C19.1184 13.2888 19.375 14.1347 19.375 15C19.375 16.1603 18.9141 17.2731 18.0936 18.0936C17.2731 18.9141 16.1603 19.375 15 19.375V19.375ZM15 13.125C14.6292 13.125 14.2667 13.235 13.9583 13.441C13.65 13.647 13.4096 13.9399 13.2677 14.2825C13.1258 14.6251 13.0887 15.0021 13.161 15.3658C13.2334 15.7295 13.412 16.0636 13.6742 16.3258C13.9364 16.5881 14.2705 16.7666 14.6342 16.839C14.9979 16.9113 15.3749 16.8742 15.7175 16.7323C16.0601 16.5904 16.353 16.35 16.559 16.0417C16.765 15.7334 16.875 15.3708 16.875 15C16.875 14.5027 16.6775 14.0258 16.3258 13.6742C15.9742 13.3225 15.4973 13.125 15 13.125Z" fill="black"/>
</svg>
